# File produced by Open Asset Import Library (http://www.assimp.sf.net)
# (assimp v3.1.6393133)

mtllib Sand3.mtl

# vertex positions
v 894.710144 5.648887 -894.710144
v 298.237335 5.648886 -894.710144
v 894.710144 5.648887 -298.237305
v 298.237305 5.648886 -298.237335
v 894.710144 5.648887 298.236420
v 298.237305 5.648886 298.236420
v 894.710144 5.648887 894.710144
v 298.237335 5.648886 894.710144
v -298.236420 5.648886 -894.710144
v -298.236420 5.648886 -298.237335
v -298.236420 5.648886 298.236420
v -298.236420 5.648886 894.710144
v -894.710144 5.648887 -894.710144
v -894.710144 5.648886 -298.237335
v -894.710144 5.648886 298.236420
v -894.710144 5.648887 894.710144

# UV coordinates
vt 0.993080 0.011167
vt 0.993080 0.334666
vt 0.669580 0.011166
vt 0.669580 0.334666
vt 0.339460 0.006201
vt 0.662960 0.006201
vt 0.339460 0.329701
vt 0.662960 0.329701
vt 0.010995 0.009511
vt 0.334495 0.009511
vt 0.010995 0.333011
vt 0.334495 0.333011
vt 0.994735 0.339631
vt 0.994735 0.663131
vt 0.671235 0.339631
vt 0.671235 0.663131
vt 0.339460 0.659821
vt 0.339460 0.336321
vt 0.662960 0.659821
vt 0.662960 0.336321
vt 0.007685 0.663131
vt 0.007685 0.339631
vt 0.331185 0.663131
vt 0.331185 0.339631
vt 0.994735 0.668096
vt 0.994734 0.991596
vt 0.671235 0.668096
vt 0.671235 0.991596
vt 0.339460 0.991596
vt 0.339460 0.668096
vt 0.662960 0.991596
vt 0.662960 0.668096
vt 0.007685 0.991596
vt 0.007685 0.668096
vt 0.331185 0.991596
vt 0.331185 0.668096

# vertex normals
vn 0.000000 1.000000 0.000000
vn -0.000000 1.000000 0.000000
vn -0.000000 1.000000 0.000000
vn -0.000000 1.000000 0.000000
vn -0.000000 1.000000 0.000000
vn -0.000000 1.000000 -0.000000
vn -0.000000 1.000000 -0.000000
vn 0.000000 1.000000 0.000000
vn 0.000000 1.000000 0.000000
vn 0.000000 1.000000 -0.000000
vn 0.000000 1.000000 -0.000000
vn 0.000000 1.000000 0.000000
vn 0.000000 1.000000 0.000000

# Mesh
g polySurface13
usemtl lambert7
f 1/1/1 2/2/2 3/3/3
f 3/3/3 2/2/2 4/4/4
f 5/5/5 3/6/3 6/7/6
f 6/7/6 3/6/3 4/8/4
f 7/9/1 5/10/5 8/11/7
f 8/11/7 5/10/5 6/12/6
f 2/13/2 9/14/8 4/15/4
f 4/15/4 9/14/8 10/16/9
f 11/17/10 6/18/6 10/19/9
f 10/19/9 6/18/6 4/20/4
f 12/21/11 8/22/7 11/23/10
f 11/23/10 8/22/7 6/24/6
f 9/25/8 13/26/1 10/27/9
f 10/27/9 13/26/1 14/28/12
f 15/29/13 11/30/10 14/31/12
f 14/31/12 11/30/10 10/32/9
f 16/33/1 12/34/11 15/35/13
f 15/35/13 12/34/11 11/36/10
