# File produced by Open Asset Import Library (http://www.assimp.sf.net)
# (assimp v3.1.6393133)

mtllib groundWhole1.mtl

# vertex positions
v -1.898994 0.090736 -3.896869
v -0.255115 0.105669 7.806073
v 1.879760 0.065851 6.684398
v 0.689571 0.126362 -3.803274
v -7.501805 0.070702 2.625806
v -7.601833 0.085625 7.150131
v -2.188572 0.123339 8.925342
v 3.568659 0.083229 -2.174377
v 8.106406 0.098396 -1.907857
v 5.491135 0.141445 -0.602263
v 7.808489 0.136431 1.371225
v 6.803215 0.090106 8.499523
v 10.941626 0.087706 6.199197
v 9.627124 0.052757 3.603762
v -4.626957 0.060764 -3.051323
v -6.713742 0.068232 -1.013654
v 4.043705 0.066805 -5.470655
v 0.880783 0.132548 -4.653304
v 8.201679 0.093533 -7.625726
v 6.123724 0.087130 -6.497189
v -1.929941 0.169234 -5.481268
v -5.167850 0.128040 -5.947316
v 8.572893 0.128979 10.373857
v 12.080979 0.072010 8.430495
v 12.137389 0.085407 3.831698
v 12.141701 0.000481 3.829330
v 12.101938 -0.011053 8.428735
v 12.079271 0.094922 -1.666204
v 9.629995 0.105736 -8.796505
v 12.117555 0.002072 -1.668863
v 12.071573 0.096853 -9.574041
v 12.134521 0.010137 -9.569847
v 12.111559 0.015875 -12.099891
v 12.078603 0.082005 -12.100772
v 8.040932 0.105867 -12.111305
v 8.062967 0.023154 -12.191934
v 3.778250 0.089856 -12.256021
v -2.247797 0.002761 -12.083103
v 3.783528 0.010513 -12.324809
v 1.061497 -0.033656 -12.336212
v -9.593418 0.121742 -8.704584
v -7.346160 0.097242 -7.000965
v -7.576037 0.095319 -12.092073
v -2.232553 -0.057554 -12.149673
v -5.241633 -0.060626 -12.182781
v -7.577455 0.034366 -12.123803
v -12.134149 0.022975 -12.116136
v -12.121786 0.089331 -12.104430
v -12.175198 0.102017 -10.312510
v -12.173762 0.004096 -10.207407
v -12.092236 0.102988 -2.900692
v -12.088346 0.095174 2.398006
v -12.121609 0.014867 -2.876833
v -12.109840 0.035470 0.188485
v -12.094775 0.025241 2.393933
v -12.123963 0.095658 7.550768
v -12.137489 0.021246 7.554232
v -12.107377 0.011978 12.257200
v -12.109388 0.093252 12.228221
v -9.306763 0.082462 9.479647
v -3.734308 0.181541 10.548604
v -7.436502 0.100468 12.057434
v -4.968928 0.112220 12.138662
v -10.381588 0.012977 12.377203
v -10.366265 0.085468 12.359646
v -8.729548 -0.044238 12.247977
v -7.111932 0.018716 12.092438
v -4.960274 0.033091 12.168506
v -1.268915 0.101466 12.170832
v -1.253309 0.008387 12.180625
v 4.941142 0.089735 12.125192
v 2.074100 0.011715 11.971453
v 2.067861 0.094756 11.955982
v 4.783662 0.007417 7.256811
v 3.822543 0.024842 12.162881
v 3.851929 0.092449 12.157010
v 4.943669 0.008392 12.137400
v 9.953716 0.099312 12.136226
v 12.069629 0.096710 12.089448
v 9.962129 0.014507 12.146393
v 12.108016 0.010326 12.118154

# UV coordinates
vt 0.386535 0.007816
vt 0.689286 0.034939
vt 0.689286 0.113062
vt 0.390833 0.073473
vt 0.190555 0.376753
vt 0.207838 0.504445
vt 0.059177 0.580290
vt 0.437501 0.149016
vt 0.499982 0.615553
vt 0.627814 0.603678
vt 0.574872 0.650018
vt 0.510827 0.708104
vt 0.689286 0.307500
vt 0.560116 0.379074
vt 0.533865 0.304656
vt 0.007812 0.545203
vt 0.011534 0.213753
vt 0.091034 0.227802
vt 0.156647 0.277068
vt 0.611429 0.510856
vt 0.701583 0.531109
vt 0.707764 0.554951
vt 0.493254 0.452611
vt 0.551885 0.483327
vt 0.013760 0.202227
vt 0.007812 0.178419
vt 0.086277 0.153187
vt 0.086636 0.197822
vt 0.177457 0.137981
vt 0.164123 0.219526
vt 0.689286 0.399046
vt 0.569116 0.428249
vt 0.389895 0.782236
vt 0.460683 0.773082
vt 0.423950 0.847766
vt 0.391048 0.912267
vt 0.988889 0.457184
vt 0.991288 0.457245
vt 0.991379 0.586978
vt 0.988963 0.586930
vt 0.388517 0.626682
vt 0.452865 0.420744
vt 0.988398 0.302090
vt 0.991231 0.302151
vt 0.386535 0.403028
vt 0.987286 0.079221
vt 0.990308 0.079088
vt 0.987448 0.007850
vt 0.989532 0.007816
vt 0.717266 0.587375
vt 0.816741 0.625530
vt 0.798449 0.691661
vt 0.717266 0.691661
vt 0.848945 0.585449
vt 0.974642 0.122040
vt 0.971383 0.122659
vt 0.971746 0.008763
vt 0.973602 0.007812
vt 0.717266 0.467001
vt 0.880162 0.527128
vt 0.717266 0.296510
vt 0.903929 0.299240
vt 0.929239 0.377948
vt 0.977424 0.242782
vt 0.974462 0.242932
vt 0.908200 0.467865
vt 0.978616 0.319566
vt 0.807544 0.082886
vt 0.857423 0.146288
vt 0.717266 0.145878
vt 0.974999 0.412566
vt 0.972464 0.412991
vt 0.888676 0.207778
vt 0.975580 0.497450
vt 0.970518 0.563301
vt 0.972457 0.563340
vt 0.972771 0.691876
vt 0.970870 0.691527
vt 0.717266 0.007816
vt 0.758107 0.007816
vt 0.941041 0.641483
vt 0.943828 0.644426
vt 0.943883 0.694996
vt 0.941980 0.695331
vt 0.301963 0.057099
vt 0.376801 0.007815
vt 0.376801 0.216742
vt 0.224392 0.274807
vt 0.238757 0.106825
vt 0.376801 0.366064
vt 0.248286 0.377002
vt 0.939518 0.434703
vt 0.942145 0.435347
vt 0.939222 0.348235
vt 0.940325 0.285893
vt 0.938345 0.286028
vt 0.376801 0.511241
vt 0.252950 0.505353
vt 0.936652 0.140471
vt 0.938787 0.140549
vt 0.935248 0.007815
vt 0.937548 0.008613
vt 0.263240 0.565037
vt 0.112275 0.616560
vt 0.301985 0.570871
vt 0.223680 0.648964
vt 0.159219 0.648628
vt 0.376802 0.650255
vt 0.953814 0.642962
vt 0.955929 0.642592
vt 0.955603 0.691901
vt 0.953172 0.691757
vt 0.306348 0.640820
vt 0.345749 0.636938
vt 0.954434 0.596195
vt 0.958328 0.550485
vt 0.960799 0.559651
vt 0.958237 0.489752
vt 0.960622 0.490007
vt 0.053184 0.947160
vt 0.007812 0.983361
vt 0.007813 0.878696
vt 0.098999 0.901601
vt 0.957867 0.385182
vt 0.960506 0.385632
vt 0.055138 0.597156
vt 0.107592 0.646139
vt 0.007813 0.702978
vt 0.958924 0.291142
vt 0.961307 0.291315
vt 0.007813 0.784131
vt 0.160070 0.784820
vt 0.129438 0.845897
vt 0.143171 0.703051
vt 0.958253 0.241530
vt 0.960160 0.240684
vt 0.007813 0.733819
vt 0.689286 0.216198
vt 0.469805 0.192014
vt 0.508299 0.264935
vt 0.957564 0.209901
vt 0.959885 0.209947
vt 0.007813 0.561168
vt 0.689286 0.481180
vt 0.631821 0.504080
vt 0.956164 0.068346
vt 0.955428 0.007813
vt 0.958011 0.008858
vt 0.958575 0.068557
vt 0.989522 0.691002
vt 0.992188 0.690190

# vertex normals
vn 0.001298 0.999997 0.001888
vn -0.005843 0.999977 -0.003427
vn 0.012520 0.999912 0.004348
vn -0.001257 0.999370 -0.035470
vn 0.011176 0.999882 -0.010583
vn -0.005388 0.999928 -0.010736
vn -0.010907 0.999941 0.000256
vn -0.010907 0.999941 0.000256
vn -0.001278 0.999987 -0.004963
vn -0.000330 0.999992 -0.004003
vn 0.017961 0.999839 0.000417
vn -0.003576 0.999993 -0.000910
vn -0.005642 0.999981 -0.002433
vn -0.005674 0.999392 0.034391
vn -0.009774 0.999382 0.033763
vn 0.003324 0.999963 -0.008000
vn -0.012351 0.999898 -0.007209
vn 0.007882 0.999964 0.003010
vn 0.988857 0.148480 0.010742
vn -0.013175 0.999911 0.001870
vn -0.001490 0.999999 0.000736
vn 0.013047 0.999904 0.004680
vn 0.972407 0.233186 -0.007039
vn 0.003715 0.999993 0.000241
vn 0.871107 0.491093 0.000821
vn 0.847118 0.531393 -0.003626
vn 0.847117 0.531393 -0.003626
vn 0.004608 0.999982 -0.003767
vn -0.006110 0.999977 0.002969
vn 0.012988 0.475947 -0.879378
vn -0.003186 0.999992 0.002249
vn 0.020763 0.999441 -0.026202
vn 0.021547 0.679656 -0.733214
vn 0.021547 0.679657 -0.733214
vn -0.003054 0.999972 -0.006779
vn -0.007941 0.999962 0.003708
vn -0.007459 0.654758 -0.755802
vn 0.011584 0.999932 -0.000901
vn -0.030126 0.855472 -0.516972
vn -0.014266 0.999898 0.000266
vn 0.006944 0.999830 -0.017110
vn 0.010893 0.662843 -0.748679
vn -0.003615 0.461807 -0.886973
vn -0.000129 0.322915 -0.946428
vn -0.001733 0.999965 -0.008244
vn -0.998324 0.052200 -0.025008
vn -0.998323 0.052200 -0.025008
vn -0.007611 0.999971 -0.000046
vn 0.005700 0.999981 0.002172
vn 0.000342 0.999959 0.009000
vn 0.000342 0.999959 0.009000
vn 0.006372 0.999962 0.005975
vn 0.005710 0.999983 0.001099
vn -0.987944 0.154556 0.008932
vn -0.951383 0.308008 0.001310
vn -0.995813 0.091130 0.007225
vn 0.003759 0.999992 -0.001539
vn -0.990543 0.136996 -0.007477
vn -0.997190 0.074761 0.004844
vn -0.007292 0.999775 -0.019918
vn 0.002501 0.999992 0.003188
vn -0.015889 0.999765 0.014732
vn 0.004341 0.999990 0.000501
vn 0.004341 0.999990 0.000501
vn -0.068514 0.294424 0.953216
vn 0.004422 0.999990 0.000583
vn -0.005434 0.999981 -0.003043
vn 0.083612 0.217841 0.972396
vn 0.082436 0.440498 0.893961
vn -0.034096 0.312071 0.949447
vn 0.002508 0.998961 0.045498
vn 0.034452 0.999402 -0.003027
vn -0.004757 0.223658 0.974656
vn -0.014296 0.999872 -0.007240
vn 0.062862 0.149348 0.986784
vn 0.015478 0.999862 -0.006035
vn 0.005174 0.999984 0.002165
vn -0.031141 0.999389 -0.015891
vn -0.109540 0.155906 0.981679
vn 0.014626 0.999842 -0.010130
vn -0.003741 0.999957 0.008520
vn -0.004990 0.999971 0.005795
vn 0.001996 0.999854 -0.016971
vn -0.011477 0.999806 0.016017
vn 0.026742 0.115700 0.992924
vn -0.001951 0.999830 0.018359
vn 0.010020 0.999948 -0.001615
vn 0.017504 0.225947 0.973982
vn 0.943855 0.330356 -0.001394
vn 0.943855 0.330356 -0.001394
vn -0.002188 0.133323 0.991070

# Mesh
g g2LP:Mesh
usemtl initialShadingGroup
f 1/1/1 2/2/1 3/3/1
f 3/3/1 4/4/1 1/1/1
f 5/5/2 6/6/2 7/7/2
f 8/8/3 4/4/3 3/3/3
f 9/9/4 8/10/4 10/11/4
f 10/11/5 11/12/5 9/9/5
f 12/13/6 13/14/6 14/15/6
f 2/16/7 1/17/7 15/18/8
f 2/16/9 16/19/9 5/5/9
f 5/5/9 7/7/9 2/16/9
f 2/16/10 15/18/10 16/19/10
f 8/10/11 17/20/11 18/21/11
f 18/21/11 4/22/11 8/10/11
f 19/23/12 20/24/12 9/9/12
f 9/9/13 20/24/13 17/20/13
f 17/20/13 8/10/13 9/9/13
f 4/25/14 18/26/14 21/27/14
f 21/27/14 1/28/14 4/25/14
f 22/29/15 15/30/15 1/28/15
f 1/28/15 21/27/15 22/29/15
f 23/31/16 24/32/16 13/14/16
f 13/14/16 12/13/16 23/31/16
f 25/33/17 14/34/17 13/35/17
f 13/35/18 24/36/18 25/33/18
f 26/37/19 25/38/19 24/39/19
f 24/39/19 27/40/19 26/37/19
f 14/34/20 25/33/20 28/41/20
f 28/41/21 29/42/21 19/23/21
f 19/23/21 9/9/21 28/41/21
f 14/34/22 28/41/22 9/9/22
f 9/9/22 11/12/22 14/34/22
f 30/43/23 28/44/23 25/38/23
f 25/38/23 26/37/23 30/43/23
f 31/45/24 29/42/24 28/41/24
f 32/46/25 31/47/25 28/44/25
f 28/44/25 30/43/25 32/46/25
f 33/48/26 34/49/26 31/47/26
f 31/47/26 32/46/27 33/48/26
f 35/50/28 29/51/28 31/52/28
f 31/52/28 34/53/28 35/50/28
f 35/50/29 19/54/29 29/51/29
f 36/55/30 35/56/30 34/57/30
f 34/57/30 33/58/30 36/55/30
f 37/59/31 20/60/31 19/54/31
f 19/54/31 35/50/31 37/59/31
f 38/61/32 21/62/32 18/63/32
f 39/64/33 37/65/33 35/56/34
f 35/56/34 36/55/33 39/64/33
f 37/59/35 38/61/35 18/63/35
f 18/63/35 17/66/35 37/59/35
f 37/59/36 17/66/36 20/60/36
f 37/65/37 39/64/37 40/67/37
f 41/68/38 42/69/38 43/70/38
f 40/67/39 44/71/39 38/72/39
f 38/72/39 37/65/39 40/67/39
f 43/70/40 42/69/40 22/73/40
f 43/70/41 22/73/41 21/62/41
f 21/62/41 38/61/41 43/70/41
f 45/74/42 43/75/42 38/72/42
f 38/72/42 44/71/42 45/74/42
f 46/76/43 43/75/43 45/74/43
f 47/77/44 48/78/44 43/75/44
f 43/75/44 46/76/44 47/77/44
f 48/79/45 49/80/45 41/68/45
f 41/68/45 43/70/45 48/79/45
f 50/81/46 49/82/47 48/83/46
f 48/83/46 47/84/47 50/81/46
f 41/85/48 49/86/48 51/87/48
f 16/88/49 15/30/49 51/87/49
f 42/89/50 51/87/51 15/30/50
f 15/30/50 22/29/51 42/89/50
f 42/89/52 41/85/52 51/87/52
f 51/87/53 52/90/53 5/91/53
f 5/91/53 16/88/53 51/87/53
f 53/92/54 51/93/54 49/82/54
f 49/82/54 50/81/54 53/92/54
f 54/94/55 52/95/55 51/93/55
f 51/93/55 53/92/55 54/94/55
f 55/96/56 52/95/56 54/94/56
f 52/90/57 56/97/57 6/98/57
f 6/98/57 5/91/57 52/90/57
f 57/99/58 56/100/58 52/95/58
f 52/95/58 55/96/58 57/99/58
f 58/101/59 59/102/59 56/100/59
f 56/100/59 57/99/59 58/101/59
f 60/103/60 61/104/60 7/7/60
f 7/7/60 6/6/60 60/103/60
f 60/105/61 6/98/61 56/97/61
f 60/103/62 62/106/62 63/107/62
f 63/107/62 61/104/62 60/103/62
f 60/105/63 56/97/64 59/108/64
f 64/109/65 65/110/65 59/111/65
f 59/111/65 58/112/65 64/109/65
f 65/113/66 60/103/66 59/114/66
f 62/106/67 60/103/67 65/113/67
f 65/110/68 64/109/68 66/115/68
f 65/110/69 66/115/69 67/116/69
f 67/116/69 62/117/69 65/110/69
f 67/116/70 68/118/70 63/119/70
f 63/119/70 62/117/70 67/116/70
f 61/120/71 63/121/71 69/122/71
f 69/122/72 7/123/72 61/120/72
f 70/124/73 69/125/73 63/119/73
f 63/119/73 68/118/73 70/124/73
f 23/126/74 12/127/74 71/128/74
f 72/129/75 73/130/75 69/125/75
f 69/125/75 70/124/75 72/129/75
f 73/131/76 3/132/76 2/133/76
f 73/131/77 2/133/77 7/123/77
f 7/123/77 69/122/77 73/131/77
f 71/128/78 12/127/78 74/134/78
f 75/135/79 76/136/79 73/130/79
f 73/130/79 72/129/79 75/135/79
f 76/137/80 74/134/80 3/132/80
f 3/132/80 73/131/80 76/137/80
f 74/138/81 10/139/81 8/8/81
f 8/8/81 3/3/81 74/138/81
f 11/140/82 74/138/82 12/13/82
f 12/13/82 14/15/82 11/140/82
f 76/137/83 71/128/83 74/134/83
f 11/140/84 10/139/84 74/138/84
f 75/135/85 77/141/85 71/142/85
f 71/142/85 76/136/85 75/135/85
f 78/143/86 23/126/86 71/128/86
f 78/144/87 79/145/87 24/32/87
f 24/32/87 23/31/87 78/144/87
f 80/146/88 81/147/88 79/148/88
f 79/148/88 78/149/88 80/146/88
f 81/150/89 27/40/89 24/39/90
f 24/39/90 79/151/89 81/150/89
f 80/146/91 78/149/91 71/142/91
f 71/142/91 77/141/91 80/146/91
